<?xml version="1.0" encoding="UTF-8"?>
<svg xmlns="http://www.w3.org/2000/svg" xmlns:xlink="http://www.w3.org/1999/xlink" width="2100" height="2100" viewBox="0 0 2100 2100">

<path fill-rule="nonzero" fill="rgb(0%, 0%, 0%)" fill-opacity="1" d="M 1050 337.5 C 794.683594 337.5 586.835938 544.960938 586.835938 800.011719 C 586.835938 869.339844 616.015625 951.941406 657.179688 1041.941406 C 698.34375 1131.957031 752.605469 1228.230469 806.746094 1316.753906 C 915.03125 1493.808594 1023.039062 1640.542969 1023.039062 1640.542969 C 1029.339844 1649.140625 1039.351562 1654.222656 1050 1654.222656 C 1060.648438 1654.222656 1070.660156 1649.140625 1076.960938 1640.542969 C 1076.960938 1640.542969 1184.96875 1493.808594 1293.25 1316.753906 C 1347.390625 1228.230469 1401.660156 1131.957031 1442.820312 1041.941406 C 1483.980469 951.941406 1513.160156 869.339844 1513.160156 800.011719 C 1513.160156 544.960938 1305.320312 337.5 1050 337.5 Z M 1050 404.230469 C 1269.261719 404.230469 1446.109375 581.101562 1446.109375 800.011719 C 1446.109375 849.160156 1421.398438 928.191406 1382.011719 1014.339844 C 1342.609375 1100.480469 1289.648438 1194.8125 1236.378906 1281.910156 C 1143.328125 1434.0625 1072.089844 1530.214844 1050 1560.664062 C 1027.910156 1530.214844 956.671875 1434.0625 863.617188 1281.910156 C 810.347656 1194.8125 757.390625 1100.480469 717.992188 1014.339844 C 678.597656 928.191406 653.890625 849.160156 653.890625 800.011719 C 653.890625 581.101562 830.738281 404.230469 1050 404.230469 Z M 1050 404.230469 "/>
<path fill-rule="nonzero" fill="rgb(0%, 0%, 0%)" fill-opacity="1" d="M 1050 630.058594 C 956.566406 630.058594 880.054688 706.628906 880.050781 800.011719 C 880.050781 893.390625 956.566406 969.628906 1050 969.628906 C 1143.429688 969.628906 1219.949219 893.390625 1219.941406 800.011719 C 1219.941406 706.628906 1143.429688 630.058594 1050 630.058594 Z M 1050 696.789062 C 1107.378906 696.789062 1153.21875 742.78125 1153.21875 800.011719 C 1153.21875 857.25 1107.378906 902.898438 1050 902.898438 C 992.621094 902.898438 946.78125 857.25 946.78125 800.011719 C 946.78125 742.769531 992.621094 696.789062 1050 696.789062 Z M 1050 696.789062 "/>
<path fill-rule="nonzero" fill="rgb(0%, 0%, 0%)" fill-opacity="1" d="M 941.851562 1430.824219 C 856.984375 1439.371094 784.75 1457.191406 730.8125 1482.429688 C 703.84375 1495.054688 681.347656 1509.511719 664.082031 1527.464844 C 646.816406 1545.417969 634.5 1568.339844 634.5 1593.867188 C 634.5 1625.28125 652.640625 1652.117188 676.574219 1672.101562 C 700.507812 1692.089844 731.523438 1707.980469 768.613281 1721.082031 C 842.800781 1747.285156 941.285156 1762.5 1050 1762.5 C 1158.710938 1762.5 1257.199219 1747.285156 1331.378906 1721.082031 C 1368.480469 1707.972656 1399.488281 1692.089844 1423.429688 1672.101562 C 1447.359375 1652.117188 1465.5 1625.28125 1465.5 1593.867188 C 1465.5 1568.335938 1453.179688 1545.417969 1435.921875 1527.464844 C 1418.648438 1509.511719 1396.160156 1495.050781 1369.191406 1482.429688 C 1315.238281 1457.1875 1243.019531 1439.363281 1158.148438 1430.824219 L 1151.25 1497.550781 C 1230.570312 1505.53125 1297.191406 1522.453125 1340.921875 1542.914062 C 1362.789062 1553.148438 1378.828125 1564.355469 1387.929688 1573.816406 C 1397.03125 1583.273438 1398.769531 1589.25 1398.769531 1593.867188 C 1398.769531 1599.722656 1395.429688 1608.511719 1380.691406 1620.820312 C 1365.941406 1633.140625 1341.089844 1646.640625 1309.03125 1657.96875 C 1244.898438 1680.617188 1152.339844 1695.769531 1050 1695.769531 C 947.652344 1695.769531 855.089844 1680.625 790.960938 1657.96875 C 758.902344 1646.640625 734.046875 1633.132812 719.300781 1620.820312 C 704.558594 1608.519531 701.222656 1599.730469 701.222656 1593.867188 C 701.222656 1589.238281 702.972656 1583.28125 712.078125 1573.816406 C 721.167969 1564.355469 737.226562 1553.144531 759.085938 1542.914062 C 802.808594 1522.453125 869.445312 1505.535156 948.757812 1497.550781 Z M 941.851562 1430.824219 "/>
</svg>
